<svg width="74" height="21" viewBox="0 0 74 21" fill="none" xmlns="http://www.w3.org/2000/svg">
<path d="M9.69816 9.43041H6.52166V15.2774C6.52166 15.7647 6.64348 16.1207 6.8871 16.3456C7.13073 16.5705 7.48679 16.7017 7.95531 16.7392C8.42382 16.7579 9.00477 16.7485 9.69816 16.7111V20C7.20569 20.2811 5.44409 20.0469 4.41337 19.2972C3.40138 18.5476 2.89539 17.2077 2.89539 15.2774V9.43041H0.44977V5.94469H2.89539V3.10552L6.52166 2.0092V5.94469H9.69816V9.43041ZM23.7908 18.2571C22.3478 19.6814 20.5862 20.3935 18.506 20.3935C16.4258 20.3935 14.6642 19.6814 13.2212 18.2571C11.7969 16.8141 11.0848 15.0525 11.0848 12.9723C11.0848 10.8922 11.7969 9.13993 13.2212 7.71566C14.6642 6.27265 16.4258 5.55114 18.506 5.55114C20.5862 5.55114 22.3478 6.27265 23.7908 7.71566C25.2338 9.13993 25.9553 10.8922 25.9553 12.9723C25.9553 15.0525 25.2338 16.8141 23.7908 18.2571ZM15.7793 15.7553C16.5102 16.4862 17.4191 16.8516 18.506 16.8516C19.593 16.8516 20.5019 16.4862 21.2327 15.7553C21.9636 15.0244 22.3291 14.0968 22.3291 12.9723C22.3291 11.8479 21.9636 10.9203 21.2327 10.1894C20.5019 9.45852 19.593 9.09308 18.506 9.09308C17.4191 9.09308 16.5102 9.45852 15.7793 10.1894C15.0671 10.9203 14.7111 11.8479 14.7111 12.9723C14.7111 14.0968 15.0671 15.0244 15.7793 15.7553ZM35.1967 20.3935C33.079 20.3935 31.3081 19.6814 29.8838 18.2571C28.4783 16.8329 27.7755 15.0713 27.7755 12.9723C27.7755 10.8734 28.4783 9.11182 29.8838 7.68755C31.3081 6.26328 33.079 5.55114 35.1967 5.55114C36.5647 5.55114 37.811 5.8791 38.9354 6.53501C40.0598 7.19093 40.9125 8.07173 41.4935 9.17741L38.3732 11.0046C38.0921 10.4236 37.6611 9.96451 37.0801 9.62718C36.5179 9.28985 35.8807 9.12119 35.1686 9.12119C34.0816 9.12119 33.1821 9.48663 32.47 10.2175C31.7578 10.9296 31.4018 11.8479 31.4018 12.9723C31.4018 14.078 31.7578 14.9963 32.47 15.7272C33.1821 16.4393 34.0816 16.7954 35.1686 16.7954C35.8995 16.7954 36.546 16.6361 37.1082 16.3175C37.6892 15.9802 38.1202 15.521 38.4013 14.9401L41.5497 16.7392C40.9313 17.8449 40.0598 18.735 38.9354 19.4097C37.811 20.0656 36.5647 20.3935 35.1967 20.3935ZM51.2823 5.55114C52.819 5.55114 54.084 6.0665 55.0773 7.09723C56.0892 8.12795 56.5952 9.55222 56.5952 11.37V20H52.969V11.8198C52.969 10.8828 52.716 10.1707 52.21 9.6834C51.704 9.17741 51.0293 8.92442 50.186 8.92442C49.249 8.92442 48.4994 9.21489 47.9372 9.79585C47.375 10.3768 47.0938 11.2482 47.0938 12.4101V20H43.4676V0.322567H47.0938V7.51889C47.9746 6.20706 49.3708 5.55114 51.2823 5.55114ZM70.3736 5.94469H73.9999V20H70.3736V18.3415C69.2867 19.7095 67.7593 20.3935 65.7916 20.3935C63.9175 20.3935 62.3059 19.6814 60.9566 18.2571C59.626 16.8141 58.9607 15.0525 58.9607 12.9723C58.9607 10.8922 59.626 9.13993 60.9566 7.71566C62.3059 6.27265 63.9175 5.55114 65.7916 5.55114C67.7593 5.55114 69.2867 6.23517 70.3736 7.60322V5.94469ZM63.6833 15.8396C64.4142 16.5705 65.3418 16.9359 66.4662 16.9359C67.5907 16.9359 68.5183 16.5705 69.2492 15.8396C69.9988 15.09 70.3736 14.1343 70.3736 12.9723C70.3736 11.8104 69.9988 10.864 69.2492 10.1332C68.5183 9.38356 67.5907 9.00875 66.4662 9.00875C65.3418 9.00875 64.4142 9.38356 63.6833 10.1332C62.9524 10.864 62.587 11.8104 62.587 12.9723C62.587 14.1343 62.9524 15.09 63.6833 15.8396Z" fill="#1D2530"/>
</svg>
